<?xml version="1.0" standalone="no"?>
<!DOCTYPE svg PUBLIC "-//W3C//DTD SVG 20010904//EN"
 "http://www.w3.org/TR/2001/REC-SVG-20010904/DTD/svg10.dtd">
<svg version="1.0" xmlns="http://www.w3.org/2000/svg"
 width="139.000000pt" height="181.000000pt" viewBox="0 0 139.000000 181.000000"
 preserveAspectRatio="xMidYMid meet">

<g transform="translate(0.000000,181.000000) scale(0.100000,-0.100000)"
fill="#000000" stroke="none">
<path d="M571 1590 c-136 -29 -243 -84 -341 -177 -262 -247 -292 -648 -69
-925 68 -85 138 -141 235 -189 376 -183 819 6 951 406 23 70 27 96 27 210 0
115 -3 140 -27 210 -95 281 -333 460 -627 470 -58 2 -125 0 -149 -5z m129 -56
c0 -14 3 -14 15 -4 12 10 15 9 15 -6 1 -18 1 -18 15 0 11 15 17 16 28 8 8 -7
17 -9 21 -5 3 4 13 -2 21 -13 13 -17 14 -17 15 -1 0 21 26 23 34 1 13 -35 7
-43 -24 -34 -18 5 -32 5 -35 -1 -9 -13 -25 -11 -22 3 2 12 -3 14 -60 16 -27 2
-33 6 -34 25 -1 20 -2 20 -6 2 -3 -11 -14 -26 -24 -33 -11 -7 -17 -18 -14 -23
4 -5 -1 -9 -9 -9 -9 0 -16 2 -16 4 0 2 -3 12 -6 20 -5 12 -2 15 12 9 12 -4 15
-3 10 5 -5 8 0 12 12 12 11 0 22 9 25 20 6 24 27 27 27 4z m-121 -32 c0 -24
-1 -25 -9 -7 -7 17 -9 17 -9 3 -1 -10 -5 -18 -11 -18 -5 0 -10 -6 -10 -14 0
-7 -9 -16 -20 -19 -24 -6 -27 8 -4 17 10 4 13 13 9 26 -5 16 -3 19 11 13 12
-5 15 -3 9 6 -4 8 -2 17 6 21 19 12 29 2 28 -28z m-92 -9 c8 -10 12 -12 8 -5
-8 15 11 16 21 1 7 -12 -15 -31 -31 -26 -17 6 -78 -50 -70 -63 10 -16 -12 -20
-31 -5 -18 14 -18 14 -1 15 10 0 16 4 13 8 -9 14 51 75 65 67 9 -6 11 -3 6 8
-8 22 2 22 20 0z m448 -27 c-1 -25 0 -26 12 -10 8 11 13 13 13 5 0 -8 6 -11
15 -7 9 3 15 0 15 -10 0 -11 6 -13 20 -9 13 4 22 1 26 -9 3 -9 10 -13 15 -10
5 3 9 -1 9 -9 0 -9 9 -13 25 -12 14 2 25 -1 25 -5 0 -14 -23 -25 -45 -21 -16
2 -18 0 -7 -10 6 -7 12 -17 12 -23 0 -5 -6 -1 -14 9 -8 11 -12 23 -10 27 7 12
-90 68 -100 58 -15 -15 -56 11 -55 34 1 17 2 18 6 4 2 -10 8 -18 13 -18 15 0
21 33 8 42 -10 7 -9 9 2 5 9 -2 15 -15 15 -31z m65 14 c0 -5 -2 -10 -4 -10 -3
0 -8 5 -11 10 -3 6 -1 10 4 10 6 0 11 -4 11 -10z m-220 -40 c156 -24 315 -141
385 -283 80 -163 82 -318 4 -476 -216 -439 -847 -379 -985 94 -50 175 4 379
135 510 66 66 112 96 191 126 92 36 172 44 270 29z m-430 -53 c0 -6 -3 -8 -6
-4 -9 9 -54 -44 -47 -56 3 -5 2 -7 -4 -4 -5 3 -34 -19 -62 -49 -46 -48 -52
-60 -47 -85 5 -26 3 -29 -19 -29 -14 0 -25 5 -25 10 0 6 8 10 18 10 10 0 13 3
6 8 -11 8 -12 57 -1 69 4 3 7 1 7 -5 0 -6 7 -9 16 -5 15 5 15 7 0 15 -9 5 -16
14 -16 20 0 6 6 5 16 -3 14 -11 15 -10 12 7 -2 13 3 19 17 19 11 1 19 6 17 13
-1 7 4 12 12 12 8 0 18 5 22 12 5 7 3 8 -6 3 -8 -5 -11 -3 -8 6 3 8 11 13 18
11 7 -2 20 0 29 3 12 5 13 8 2 14 -10 7 -11 13 -1 31 11 21 12 21 31 4 10 -9
19 -22 19 -27z m802 -55 c-17 -5 -15 -32 3 -32 8 0 15 5 15 11 0 5 5 7 10 4 6
-4 8 -11 5 -16 -3 -5 2 -6 12 -2 15 5 16 3 6 -8 -18 -19 -16 -29 5 -22 15 6
15 5 3 -10 -13 -16 -16 -15 -44 13 -24 24 -36 30 -55 25 -20 -5 -23 -3 -18 10
3 9 6 22 6 28 0 8 3 8 9 -1 6 -10 10 -10 21 2 7 9 17 13 23 9 8 -5 7 -8 -1
-11z m-1032 -397 c20 -24 3 -57 -28 -53 -27 3 -39 26 -28 54 7 18 40 18 56 -1z
m1220 0 c20 -25 8 -50 -25 -50 -31 0 -43 20 -31 51 7 18 40 18 56 -1z m-29
-221 c11 -14 11 -18 -5 -29 -9 -7 -17 -16 -17 -19 3 -28 -11 -34 -37 -18 -18
12 -3 45 17 37 9 -3 5 3 -8 14 -23 18 -23 19 -5 24 34 8 41 7 55 -9z m-1123
-74 c3 -7 0 -10 -7 -6 -6 4 -11 2 -11 -3 0 -6 -7 -11 -15 -11 -8 0 -15 -5 -15
-11 0 -7 10 -9 24 -5 32 8 43 -10 21 -34 -17 -19 -18 -18 -42 17 l-25 37 24
18 c25 19 39 19 46 -2z m1061 1 c20 -15 22 -21 12 -39 -13 -24 -40 -29 -59
-10 -15 15 -15 35 1 53 16 18 17 18 46 -4z m-57 -123 c-20 -21 -23 -21 -38 -6
-19 19 -12 54 8 42 10 -6 11 -5 1 8 -22 26 0 30 26 3 l25 -25 -22 -22z m-964
42 c3 -8 0 -10 -7 -6 -7 4 -10 2 -9 -5 2 -7 -5 -15 -14 -17 -21 -4 -24 18 -6
36 14 14 30 11 36 -8z m32 -8 c0 -5 -11 -19 -25 -32 -28 -27 -36 -8 -8 22 17
19 33 24 33 10z m900 -62 c0 -4 -7 -7 -15 -7 -8 0 -12 4 -9 8 2 4 0 10 -5 13
-19 12 -24 -17 -6 -31 17 -12 14 -18 -7 -14 -5 0 -8 -6 -8 -14 0 -8 -9 -15
-20 -15 -11 0 -20 -7 -20 -15 0 -9 -9 -15 -22 -14 -22 0 -22 1 -3 9 19 8 19 9
-2 9 -12 1 -25 6 -28 11 -9 14 14 42 28 33 6 -4 3 -9 -9 -14 -18 -7 -18 -8 2
-8 14 -1 24 7 27 20 4 15 11 20 22 15 9 -3 14 -2 10 3 -3 5 1 15 8 23 8 7 12
20 9 28 -3 9 6 5 22 -9 14 -14 26 -27 26 -31z m-880 20 c0 -4 -7 -13 -15 -20
-12 -10 -15 -10 -15 0 0 8 -3 11 -6 7 -3 -3 -3 -11 1 -17 5 -8 13 -6 26 6 19
17 21 17 46 -9 22 -22 24 -28 13 -41 -14 -17 -35 -22 -25 -6 3 6 -1 7 -9 4
-18 -7 -22 11 -6 21 6 4 8 11 4 16 -4 6 -11 6 -20 -2 -27 -22 -58 23 -33 48
12 12 39 7 39 -7z m130 -80 c0 -9 37 -52 43 -49 1 1 12 -1 25 -5 23 -8 27 -22
13 -44 -11 -19 -64 6 -56 26 4 12 2 12 -8 3 -11 -8 -18 -7 -31 8 -15 16 -15
19 -2 24 9 4 13 13 10 22 -9 23 -21 18 -32 -12 -8 -24 -11 -25 -17 -10 -4 10
-2 24 5 32 14 17 50 20 50 5z m602 -50 c12 0 10 -28 -2 -35 -6 -4 -17 -1 -25
5 -12 10 -15 10 -15 0 0 -8 -3 -11 -6 -7 -4 3 -13 0 -21 -8 -20 -20 -28 -19
-41 8 -11 20 -11 20 -6 -8 5 -27 4 -28 -9 -12 -19 23 -30 22 -22 -3 4 -11 2
-20 -4 -20 -6 0 -11 6 -11 13 0 6 -5 4 -11 -5 -5 -10 -19 -18 -30 -18 -11 0
-22 -7 -25 -15 -8 -20 -24 -19 -24 2 0 13 -3 14 -12 5 -15 -15 -38 -16 -38 -1
0 5 5 7 10 4 17 -11 11 7 -7 21 -17 12 -17 14 0 31 17 17 18 17 23 -4 6 -20 8
-21 21 -7 12 11 18 12 29 3 11 -9 14 -9 14 1 0 7 8 10 18 8 10 -3 25 5 36 18
11 12 26 19 35 16 9 -3 12 -1 7 6 -4 7 -2 12 3 12 6 0 11 -4 11 -9 0 -15 57
18 65 37 7 14 10 13 18 -10 6 -16 14 -28 19 -28z m-466 -35 c4 -8 10 -15 16
-15 5 0 6 5 3 10 -3 6 -2 10 4 10 5 0 13 -5 16 -10 4 -6 10 -8 15 -5 15 9 58
-6 64 -22 7 -18 -10 -53 -27 -53 -8 0 -9 2 -1 8 7 4 8 15 3 27 -6 17 -8 17 -8
3 -1 -22 -15 -23 -35 -2 -9 9 -16 11 -16 4 0 -6 -4 -9 -8 -6 -18 11 -62 14
-62 5 0 -6 -4 -8 -9 -4 -14 8 8 65 25 65 8 0 17 -7 20 -15z"/>
<path d="M625 1364 c-76 -20 -158 -51 -206 -80 -53 -32 -55 -34 -52 -71 8 -83
2 -78 103 -75 49 2 90 1 90 -3 0 -3 -7 -20 -17 -38 -76 -148 -39 -350 87 -476
28 -28 55 -51 59 -51 14 0 94 47 118 69 11 11 23 18 25 15 3 -2 10 7 16 21 10
22 9 25 -7 25 -30 0 -30 9 -3 68 43 94 46 235 7 328 l-14 32 50 4 c62 6 68 13
39 38 -13 11 -18 20 -12 20 6 0 19 -11 30 -25 14 -17 30 -25 51 -25 29 0 31 2
31 39 0 22 3 46 6 55 14 37 -192 125 -311 131 -38 2 -79 2 -90 -1z m25 -44 c0
-5 -12 -12 -27 -15 -53 -11 -58 -13 -78 -20 -19 -7 -19 -7 1 8 12 9 34 18 49
21 15 3 30 8 33 11 9 8 22 6 22 -5z m158 -15 c12 -12 -7 -14 -37 -4 -18 6 -48
9 -67 6 -38 -6 -45 0 -12 12 20 7 105 -3 116 -14z m-299 -28 c-2 -2 -21 -15
-42 -31 -21 -15 -40 -26 -43 -24 -2 3 15 18 39 35 23 17 44 29 46 27 2 -2 2
-5 0 -7z m384 -11 c20 -10 37 -23 37 -28 0 -5 -15 -1 -32 9 -18 11 -44 25 -58
31 -19 8 -20 10 -5 8 11 -1 37 -10 58 -20z m-96 -31 c4 -4 0 -5 -10 -2 -10 4
-39 7 -63 7 -24 0 -44 4 -44 8 0 10 107 -1 117 -13z m-164 8 c-7 -2 -19 -2
-25 0 -7 3 -2 5 12 5 14 0 19 -2 13 -5z m-43 -7 c0 -2 -9 -6 -20 -9 -11 -3
-18 -1 -14 4 5 9 34 13 34 5z m-70 -19 c0 -2 -21 -18 -47 -37 -35 -23 -41 -26
-23 -8 29 28 70 54 70 45z m356 -13 c18 -14 18 -14 -6 -3 -31 14 -36 19 -24
19 6 0 19 -7 30 -16z m97 -9 c23 -32 15 -32 -19 0 -16 15 -21 25 -13 25 8 0
22 -12 32 -25z m-563 -5 c-6 -11 -12 -20 -14 -20 -2 0 -2 9 1 20 3 11 9 20 15
20 5 0 4 -9 -2 -20z m315 -170 c17 -6 24 -14 19 -22 -6 -10 -4 -10 8 0 14 11
17 10 23 -10 4 -12 3 -24 -2 -25 -16 -6 -2 -116 16 -130 15 -12 14 -14 -4 -28
-30 -24 -87 -36 -122 -26 -77 22 -89 49 -30 72 23 8 27 13 15 16 -21 5 -27 24
-26 81 1 29 5 42 15 42 8 0 11 5 7 11 -15 25 35 36 81 19z"/>
<path d="M1212 633 c-10 -4 -10 -8 -1 -19 14 -17 35 -18 45 -1 4 6 4 9 -1 5
-4 -4 -13 -2 -19 6 -6 8 -17 12 -24 9z"/>
</g>
</svg>
